<?xml version="1.0" standalone="no"?>
<!DOCTYPE svg PUBLIC "-//W3C//DTD SVG 20010904//EN"
 "http://www.w3.org/TR/2001/REC-SVG-20010904/DTD/svg10.dtd">
<svg version="1.0" xmlns="http://www.w3.org/2000/svg"
 width="270.000000pt" height="270.000000pt" viewBox="0 0 270.000000 270.000000"
 preserveAspectRatio="xMidYMid meet">
<metadata>
Created by potrace 1.14, written by Peter Selinger 2001-2017
</metadata>
<g transform="translate(0.000000,270.000000) scale(0.100000,-0.100000)"
fill="#000000" stroke="none">
<path d="M1315 2685 c-43 -18 -66 -48 -71 -92 -14 -119 148 -176 209 -74 32
55 17 125 -32 154 -39 23 -72 27 -106 12z"/>
<path d="M1088 2386 c-50 -13 -96 -40 -115 -66 -8 -12 -29 -17 -73 -18 -127
-3 -220 -54 -265 -146 -46 -93 -36 -206 30 -344 54 -114 58 -118 137 -117 36
0 70 3 73 7 4 4 -4 22 -18 40 -67 89 -126 239 -121 307 5 65 71 121 144 121
l35 0 0 -53 c1 -105 28 -199 97 -343 l39 -82 50 3 c84 5 88 17 36 121 -94 186
-121 362 -65 418 19 19 77 35 118 32 19 -1 50 -3 68 -4 l32 -2 0 -282 0 -283
47 2 c27 0 56 2 66 2 16 1 17 21 17 280 l0 279 63 7 c99 10 158 -10 178 -58
33 -79 3 -226 -80 -391 l-47 -94 25 -14 c14 -8 44 -14 66 -13 39 0 41 2 77 70
63 119 101 256 102 363 1 40 2 42 31 41 89 -1 145 -56 145 -141 0 -59 -43
-168 -101 -258 -22 -34 -37 -65 -35 -69 5 -8 143 -8 150 0 2 2 19 34 39 70 78
146 98 284 56 374 -49 105 -134 152 -286 158 -27 1 -50 11 -74 31 -60 51 -93
60 -209 57 -181 -5 -203 -5 -295 1 -57 4 -107 1 -137 -6z"/>
<path d="M597 1587 c-12 -12 -69 -74 -127 -136 -58 -62 -133 -143 -167 -179
l-62 -66 42 -46 c22 -25 66 -72 96 -106 31 -33 94 -102 141 -154 47 -51 94
-103 105 -114 11 -12 63 -69 115 -126 52 -57 104 -114 115 -126 11 -11 58 -63
105 -114 47 -51 105 -113 129 -139 l43 -46 -52 100 c-51 96 -107 203 -175 330
-18 33 -61 114 -95 180 -35 66 -92 173 -126 239 -54 101 -62 122 -52 140 6 11
52 95 104 186 51 91 96 173 99 183 7 16 -2 17 -104 17 -103 0 -114 -2 -134
-23z"/>
<path d="M926 1587 c-14 -22 -73 -126 -118 -207 -14 -25 -42 -74 -62 -109
l-36 -64 66 -126 c37 -69 81 -153 99 -186 18 -33 58 -109 90 -170 32 -60 72
-137 90 -170 51 -96 117 -220 190 -360 37 -72 77 -145 87 -163 l20 -33 17 33
c103 196 136 257 151 283 9 17 45 84 80 150 99 189 150 286 180 340 15 28 51
95 80 150 29 55 70 132 91 171 28 50 37 77 32 91 -5 10 -55 103 -113 206
l-105 187 -412 0 -413 0 -14 -23z"/>
<path d="M1870 1598 c0 -6 14 -33 30 -60 17 -26 30 -50 30 -53 0 -2 14 -28 31
-57 17 -29 47 -82 67 -118 19 -36 41 -74 48 -84 12 -17 7 -31 -35 -110 -27
-50 -72 -136 -101 -191 -29 -55 -88 -165 -130 -245 -42 -80 -108 -203 -145
-275 -37 -72 -72 -136 -78 -142 -6 -9 -6 -13 1 -13 6 0 15 6 19 14 4 8 53 62
108 122 125 134 199 215 256 278 24 27 55 62 69 76 91 98 225 245 275 300 32
36 63 70 69 75 52 50 77 84 70 98 -5 8 -56 66 -114 128 -58 61 -113 121 -123
133 -10 11 -43 47 -74 79 l-55 58 -109 -2 c-68 -1 -109 -5 -109 -11z"/>
</g>
</svg>
