<svg id="Component_1_1" data-name="Component 1 – 1" xmlns="http://www.w3.org/2000/svg" xmlns:xlink="http://www.w3.org/1999/xlink" width="1466.81" height="1367.293" viewBox="0 0 1466.81 1367.293">
  <defs>
    <clipPath id="clip-path">
      <path id="Path_7" data-name="Path 7" d="M1506.617,198.743H954.107c-11.935,0-26.706,7.11-26.706,22.142V598.248c0,13.668,14.771,27.518,26.706,27.518h552.51c11.937,0,14.619-13.85,14.619-27.518V220.885C1521.235,205.853,1518.554,198.743,1506.617,198.743Z" transform="translate(-927.401 -198.743)" fill="#444166"/>
    </clipPath>
    <clipPath id="clip-path-2">
      <path id="Path_12" data-name="Path 12" d="M1506.617,198.743H954.107c-11.935,0-26.706,7.022-26.706,21.869V593.321c0,13.5,14.771,27.179,26.706,27.179h552.51c11.937,0,14.619-13.677,14.619-27.179V220.612C1521.235,205.765,1518.554,198.743,1506.617,198.743Z" transform="translate(-927.401 -198.743)" fill="none"/>
    </clipPath>
    <linearGradient id="linear-gradient" y1="0.5" x2="1" y2="0.5" gradientUnits="objectBoundingBox">
      <stop offset="0" stop-color="#292942"/>
      <stop offset="1" stop-color="#19002b"/>
    </linearGradient>
  </defs>
  <path id="Path_51" data-name="Path 51" d="M1901.983-37.019c0,571.223.017,1312.045.017,1312.045s-492.125,179.414-723.979-108.41S1326.34,657.4,1306.9,389.459c-15.67-215.96-607.887-44.048-822.3-197.391-99.38-81.852-18.113-229.092-18.113-229.092" transform="translate(-435.19 37.023)" fill="#93000f"/>
  <g id="Group_23" data-name="Group 23" transform="translate(-283.078 241.356)">
    <g id="Group_13" data-name="Group 13" transform="translate(801.424 82.701)">
      <g id="Group_9" data-name="Group 9" transform="translate(43.053)">
        <g id="Group_8" data-name="Group 8">
          <rect id="Rectangle_11" data-name="Rectangle 11" width="138.422" height="54.492" transform="translate(227.709 394.996)" fill="#f4f4f4"/>
          <rect id="Rectangle_12" data-name="Rectangle 12" width="138.422" height="54.492" transform="translate(227.709 394.996)" fill="#cdccd2"/>
          <g id="Group_3" data-name="Group 3">
            <path id="Path_5" data-name="Path 5" d="M1506.617,198.743H954.107c-11.935,0-26.706,7.11-26.706,22.142V598.248c0,13.668,14.771,27.518,26.706,27.518h552.51c11.937,0,14.619-13.85,14.619-27.518V220.885C1521.235,205.853,1518.554,198.743,1506.617,198.743Z" transform="translate(-927.401 -198.743)" fill="#362121"/>
            <g id="Group_2" data-name="Group 2" clip-path="url(#clip-path)">
              <path id="Path_6" data-name="Path 6" d="M927.4,359.587v28.338c0,13.668,14.771,27.518,26.706,27.518h552.51c11.937,0,14.619-13.85,14.619-27.518V359.587" transform="translate(-927.401 11.58)" fill="#fff"/>
              <path id="Path_55" data-name="Path 55" d="M0,0H557.746V322.961H0Z" transform="translate(16.287 24.196)" fill="#4e2c2c"/>
            </g>
          </g>
          <path id="Path_8" data-name="Path 8" d="M1220.606,401.811a8.572,8.572,0,0,1-8.571,8.568H1019.13a8.574,8.574,0,0,1-8.573-8.568h0a8.574,8.574,0,0,1,8.573-8.57h192.906a8.573,8.573,0,0,1,8.571,8.57Z" transform="translate(-818.664 55.587)" fill="#fff"/>
          <path id="Path_9" data-name="Path 9" d="M997.158,320.741" transform="translate(-836.185 -39.216)" fill="#f7c6bd"/>
          <g id="Group_7" data-name="Group 7">
            <g id="Group_6" data-name="Group 6" clip-path="url(#clip-path-2)">
              <g id="Group_4" data-name="Group 4" transform="translate(40.504 -176.928)" opacity="0.09" style="isolation: isolate">
                <path id="Path_10" data-name="Path 10" d="M1496.388,751.735l-166.165.1L944.953,122.175l166.165-.1Z" transform="translate(-944.953 -122.072)" fill="#fff"/>
              </g>
              <g id="Group_30" data-name="Group 30" transform="translate(-50.496 -176.928)" opacity="0.09" style="isolation: isolate">
                <path id="Path_10-2" data-name="Path 10" d="M1374.388,751.735l-44.165.1L944.953,122.175l44.165-.1Z" transform="translate(-944.953 -122.072)" fill="#fff"/>
              </g>
            </g>
          </g>
        </g>
        <path id="Path_13" data-name="Path 13" d="M1077.082,391.53a15.7,15.7,0,1,1,0-22.2A15.7,15.7,0,0,1,1077.082,391.53Z" transform="translate(-766.725 18.299)" fill="#cdccd2"/>
      </g>
      <path id="Path_56" data-name="Path 56" d="M1241.779,182.711c-14.146,11.866,4.983,129.672,42.049,116.159,33.391-12.171,50.039-108.689,38.746-116.159C1297.048,165.813,1266.868,164.8,1241.779,182.711Z" transform="translate(-933.46 -81.002)" fill="#f9bc51" stroke="rgba(0,0,0,0)" stroke-width="1"/>
      <g id="Group_12" data-name="Group 12" transform="translate(0 91.327)">
        <g id="Group_11" data-name="Group 11" transform="translate(201.389)">
          <path id="Path_14" data-name="Path 14" d="M1142.429,346.625c24.51-3.553,45.13-64.455,30.814-78.007-18.359-11.357-40.226-11.429-60.853,0C1100.991,277.478,1112.611,344.889,1142.429,346.625Z" transform="translate(-996.015 -238.319)" fill="#fedb5c"/>
          <g id="Group_10" data-name="Group 10" transform="translate(34.258 29.35)">
            <path id="Path_15" data-name="Path 15" d="M1141.8,300.609c-.728-2.2-2.653-3.941-5.129-2.677a8.921,8.921,0,0,0-2.929,2.9c-1.671-7.429-1.287-15.158-.862-22.7.4-7.154.341-14.784-4.318-20.758-22.173-9.922-46.856-9.805-71.52,0-9.511,12.194-.132,30.065-5.342,43.893.922-2.447-4.561-4.743-6.471-3.68-3.665,2.042-2.123,12.625-1.473,15.907a14.785,14.785,0,0,0,2.752,6.741c.353.416,5.285,3.638,5.261,2.935.261,8.34,1.866,19.557,6.918,26.42,4.746,6.456,10.923,8.984,14.245,16.326,7.519,16.625-6.8,37.452-26.034,43.324,7.516,4.522,36.308,12.262,45.654,12.1,8.789.767,39.4-2.5,35.946-13.388-19.231-5.875-23.345-25.408-15.826-42.034,3.321-7.342,9.5-9.87,14.245-16.326,5.051-6.863,6.66-18.081,6.917-26.42-.024.728,4.986-2.608,5.345-3.039a14.726,14.726,0,0,0,2.623-6.387C1142.654,309.65,1143.137,304.664,1141.8,300.609Z" transform="translate(-980.462 -274.112)" fill="#d38355"/>
            <path id="Path_16" data-name="Path 16" d="M1016.227,411.119a4.734,4.734,0,0,1,1.964,0H1221.82V391.58a91.679,91.679,0,0,0-8.125-37.836c-9.422-20.865-26.392-37.28-47.115-45.278a77.793,77.793,0,0,0-21.175-5.012h-.021c-2.453-.226-4.906-.348-7.421-.348h-39.61a79.778,79.778,0,0,0-14.97,1.421h-.042a79.845,79.845,0,0,0-13.237,3.794c-.164.062-.33.125-.494.185-27.156,10.557-47.858,35.588-53.528,66.1a93.418,93.418,0,0,0-1.546,14.7v.288c-.021.66-.021,1.32-.021,1.98v19.539Z" transform="translate(-1006.08 -182.952)" fill="#93040f"/>
            <path id="Path_17" data-name="Path 17" d="M1010.886,392.342l.09,15.826h221.975c-.025-11.173-.049-19.282-.049-19.282a86.923,86.923,0,0,0-7.774-35.994,90.494,90.494,0,0,0-51.515-47.477c0,.051-.025.076-.025.1-.051.277-.1.579-.178.856a52.6,52.6,0,0,1-102.678.734c-.152-.582-.279-1.161-.379-1.742a4.164,4.164,0,0,1-.531.2,91.386,91.386,0,0,0-35.664,23.778,88.249,88.249,0,0,0-22.312,46.542c-.33,2.248-.582,4.521-.734,6.817-.2,2.044-.251,4.114-.251,6.184l.025,3.155Z" transform="translate(-1010.861 -180.001)" fill="#93040f"/>
          </g>
        </g>
        <path id="Path_18" data-name="Path 18" d="M1052.754,276.607a15.106,15.106,0,0,0,30,0Z" transform="translate(-720.433 -188.253)" fill="#fff"/>
        <rect id="Rectangle_14" data-name="Rectangle 14" width="228.075" height="53.074" rx="5.837" transform="translate(0 46.962)" fill="#fedb5c"/>
        <path id="Path_19" data-name="Path 19" d="M1009.783,258.67h-88.52a12.558,12.558,0,0,0-12.519,12.521v28.033a12.558,12.558,0,0,0,12.519,12.521H1044.97C1033.623,293.808,1021.845,276.141,1009.783,258.67Z" transform="translate(-908.744 -211.708)" fill="#ed7e3d" opacity="0.34"/>
        <path id="Path_20" data-name="Path 20" d="M981.274,276.652c6.5,30.615,27.613,43.033,47.62,41.6-17.5.36-30.765-35.323-16.063-41.6Z" transform="translate(-813.902 -188.194)" fill="#fedb5c"/>
      </g>
      <rect id="Rectangle_15" data-name="Rectangle 15" width="228.075" height="53.074" rx="5.837" transform="translate(718.995 255.778) rotate(180)" fill="#fedb5c"/>
      <path id="Path_22" data-name="Path 22" d="M1297.346,286.584H1195.772q-22.662,26.265-44.662,53.075h146.236a13.511,13.511,0,0,0,13.47-13.472V300.054A13.51,13.51,0,0,0,1297.346,286.584Z" transform="translate(-591.821 -83.88)" fill="#ed7e3d" opacity="0.34"/>
      <path id="Path_23" data-name="Path 23" d="M1175.034,304.652c-6.5,30.615-27.613,43.032-47.62,41.6,17.5.36,30.765-35.323,16.061-41.6Z" transform="translate(-622.806 -60.254)" fill="#fedb5c"/>
    </g>
    <g id="Group_22" data-name="Group 22" transform="translate(1458.211 -0.059)">
      <path id="Path_54" data-name="Path 54" d="M12,0H157.9a12,12,0,0,1,12,12V244.742a12,12,0,0,1-12,12H12a12,12,0,0,1-12-12V12A12,12,0,0,1,12,0Z" transform="translate(0 21.338)" fill="#ff7f00"/>
      <circle id="Ellipse_3" data-name="Ellipse 3" cx="51.519" cy="51.519" r="51.519" transform="matrix(0.16, -0.987, 0.987, 0.16, 29.733, 163.127)" fill="#a8501d"/>
      <circle id="Ellipse_4" data-name="Ellipse 4" cx="40.113" cy="40.113" r="40.113" transform="translate(49.628 34.897)" fill="#b25925"/>
      <circle id="Ellipse_5" data-name="Ellipse 5" cx="29.87" cy="29.87" r="29.87" transform="translate(57.32)" fill="#c6662e"/>
      <g id="Group_21" data-name="Group 21" transform="translate(4.347 112.549)">
        <g id="Group_20" data-name="Group 20">
          <path id="Path_37" data-name="Path 37" d="M1254.876,92.744c-.648-1.964-2.37-3.521-4.585-2.393a8.009,8.009,0,0,0-2.617,2.594c-1.493-6.641-1.149-13.548-.771-20.286.36-6.394.307-13.216-3.861-18.556-10.514-13.483-18.964,2.571-31.965,2.716-13-.145-21.449-16.2-31.965-2.718-8.5,10.9-.118,26.875-4.775,39.237.824-2.188-4.075-4.241-5.785-3.291-3.274,1.825-1.9,11.284-1.315,14.22a13.192,13.192,0,0,0,2.46,6.025c.316.372,4.724,3.251,4.7,2.621.233,7.456,1.668,17.483,6.182,23.619,4.244,5.769,9.766,8.031,12.733,14.593,6.722,14.859-6.078,33.477-23.27,38.727,6.718,4.041,32.455,10.961,40.808,10.811,7.857.685,35.221-2.229,32.133-11.967-17.192-5.25-20.868-22.712-14.148-37.57,2.97-6.563,8.49-8.824,12.734-14.593,4.513-6.136,5.951-16.163,6.182-23.619-.021.653,4.456-2.331,4.777-2.716a13.082,13.082,0,0,0,2.344-5.709C1255.644,100.825,1256.073,96.369,1254.876,92.744Z" transform="translate(-1125.577 -48.714)" fill="#f4b295"/>
          <path id="Path_38" data-name="Path 38" d="M1303.041,118.227c-1.646-.748-3.323-1.445-5.017-2.093a110.89,110.89,0,0,0-30.145-7.124h-.032c-3.489-.316-6.976-.5-10.564-.5H1200.9a112.983,112.983,0,0,0-21.308,2.028h-.067a112.727,112.727,0,0,0-18.833,5.4c-.233.083-.466.182-.7.265a99.208,99.208,0,0,0-10.254,5.125v2.511a20.01,20.01,0,0,0,17.351,13.142c.464.032.93.048,1.394.048h126.055a18.038,18.038,0,0,0,2.125-.115,20.008,20.008,0,0,0,16.758-13.47A113.894,113.894,0,0,0,1303.041,118.227Z" transform="translate(-1148.737 29.477)" fill="#602020"/>
        </g>
      </g>
      <ellipse id="Ellipse_6" data-name="Ellipse 6" cx="23.269" cy="23.845" rx="23.269" ry="23.845" transform="translate(37.23 125.14)" fill="none" stroke="#fff" stroke-miterlimit="10" stroke-width="0.988"/>
      <ellipse id="Ellipse_7" data-name="Ellipse 7" cx="23.269" cy="23.845" rx="23.269" ry="23.845" transform="translate(91.46 125.14)" fill="none" stroke="#fff" stroke-miterlimit="10" stroke-width="0.988"/>
      <path id="Path_39" data-name="Path 39" d="M1176.431,77.337a20.26,20.26,0,0,0,40.24,0Z" transform="translate(-1108.177 101.264)" fill="#880b18"/>
    </g>
    <g id="Group_27" data-name="Group 27" transform="translate(1342.164 767.584)">
      <rect id="Rectangle_17" data-name="Rectangle 17" width="169.903" height="256.742" rx="12" transform="translate(0 21.338)" fill="#ffeb52"/>
      <circle id="Ellipse_3-2" data-name="Ellipse 3" cx="51.519" cy="51.519" r="51.519" transform="matrix(0.16, -0.987, 0.987, 0.16, 29.733, 163.127)" fill="#763008"/>
      <g id="Group_21-2" data-name="Group 21" transform="translate(4.347 112.549)">
        <g id="Group_20-2" data-name="Group 20">
          <path id="Path_37-2" data-name="Path 37" d="M1254.876,92.744c-.648-1.964-2.37-3.521-4.585-2.393a8.009,8.009,0,0,0-2.617,2.594c-1.493-6.641-1.149-13.548-.771-20.286.36-6.394.307-13.216-3.861-18.556-10.514-13.483-18.964,2.571-31.965,2.716-13-.145-21.449-16.2-31.965-2.718-8.5,10.9-.118,26.875-4.775,39.237.824-2.188-4.075-4.241-5.785-3.291-3.274,1.825-1.9,11.284-1.315,14.22a13.192,13.192,0,0,0,2.46,6.025c.316.372,4.724,3.251,4.7,2.621.233,7.456,1.668,17.483,6.182,23.619,4.244,5.769,9.766,8.031,12.733,14.593,6.722,14.859-6.078,33.477-23.27,38.727,6.718,4.041,32.455,10.961,40.808,10.811,7.857.685,35.221-2.229,32.133-11.967-17.192-5.25-20.868-22.712-14.148-37.57,2.97-6.563,8.49-8.824,12.734-14.593,4.513-6.136,5.951-16.163,6.182-23.619-.021.653,4.456-2.331,4.777-2.716a13.082,13.082,0,0,0,2.344-5.709C1255.644,100.825,1256.073,96.369,1254.876,92.744Z" transform="translate(-1125.577 -48.714)" fill="#d38355"/>
          <path id="Path_38-2" data-name="Path 38" d="M1303.041,118.227c-1.646-.748-3.323-1.445-5.017-2.093a110.89,110.89,0,0,0-30.145-7.124h-.032c-3.489-.316-6.976-.5-10.564-.5H1200.9a112.983,112.983,0,0,0-21.308,2.028h-.067a112.727,112.727,0,0,0-18.833,5.4c-.233.083-.466.182-.7.265a115.423,115.423,0,0,0-11.254,5.125v2.511a20.01,20.01,0,0,0,17.351,13.142c.464.032.93.048,1.394.048h127.055a18.038,18.038,0,0,0,2.125-.115,20.008,20.008,0,0,0,16.758-13.47A113.894,113.894,0,0,0,1303.041,118.227Z" transform="translate(-1148.737 29.477)" fill="#f76540"/>
        </g>
      </g>
      <path id="Path_39-2" data-name="Path 39" d="M1176.431,77.337a10.382,10.382,0,0,0,20.621,0Z" transform="translate(-1096.368 104.624)" fill="#fff"/>
    </g>
    <g id="Group_16" data-name="Group 16" transform="translate(1342.164 405.724)">
      <path id="Path_53" data-name="Path 53" d="M9.889,0H345.121c5.462,0,9.889,5.373,9.889,12V318.409c0,6.627-4.428,12-9.889,12H9.889c-5.462,0-9.889-5.373-9.889-12V12C0,5.373,4.428,0,9.889,0Z" transform="translate(0 13.451)" fill="#f9bc51"/>
      <path id="Path_24" data-name="Path 24" d="M1241.779,182.711c-14.146,11.866,4.983,129.672,42.049,116.159,33.391-12.171,50.039-108.689,38.746-116.159C1297.048,165.813,1266.868,164.8,1241.779,182.711Z" transform="translate(-1095.2 -122.025)" stroke="rgba(0,0,0,0)" stroke-width="1" fill="url(#linear-gradient)"/>
      <g id="Group_15" data-name="Group 15" transform="translate(50.479 69.747)">
        <g id="Group_14" data-name="Group 14">
          <path id="Path_25" data-name="Path 25" d="M1285.322,198.9c-.678-2.044-2.47-3.67-4.776-2.493a8.336,8.336,0,0,0-2.727,2.7c-1.556-6.918-1.2-14.115-.8-21.133.376-6.662.318-13.766-4.021-19.329-10.953-14.045-19.756,2.677-33.3,2.827-13.54-.151-22.346-16.873-33.3-2.83-8.853,11.354-.123,28-4.975,40.872.859-2.278-4.247-4.417-6.026-3.427-3.413,1.9-1.977,11.756-1.369,14.812a13.7,13.7,0,0,0,2.563,6.277c.329.388,4.919,3.388,4.9,2.733.24,7.766,1.737,18.211,6.438,24.6,4.422,6.012,10.172,8.365,13.264,15.2,7,15.481-6.333,34.875-24.24,40.343,7,4.21,33.807,11.419,42.509,11.265,8.184.714,36.693-2.326,33.475-12.467-17.91-5.471-21.738-23.66-14.737-39.141,3.092-6.837,8.842-9.191,13.265-15.2,4.7-6.391,6.2-16.836,6.438-24.6-.019.678,4.643-2.429,4.977-2.83a13.642,13.642,0,0,0,2.443-5.948C1286.122,207.323,1286.568,202.68,1285.322,198.9Z" transform="translate(-1105.11 -152.038)" fill="#a8501d"/>
          <path id="Path_26" data-name="Path 26" d="M1166.919,335.623a5.706,5.706,0,0,1,2.37,0h246.054V312.013a110.82,110.82,0,0,0-9.815-45.719c-11.388-25.213-31.891-45.047-56.931-54.711a94.046,94.046,0,0,0-25.586-6.056h-.025c-2.967-.273-5.931-.421-8.97-.421h-47.86a96.374,96.374,0,0,0-18.089,1.718h-.05a96.418,96.418,0,0,0-16,4.584c-.2.075-.4.151-.6.223-32.811,12.757-57.826,43-64.679,79.877a112.849,112.849,0,0,0-1.868,17.765v.349c-.025.8-.025,1.595-.025,2.392v23.609Z" transform="translate(-1160.818 -59.919)" fill="#fff"/>
          <path id="Path_27" data-name="Path 27" d="M1163.435,311.819l.106,18.919H1425.6c-.028-13.359-.056-23.054-.056-23.054a105.033,105.033,0,0,0-9.179-43.028,107.365,107.365,0,0,0-60.821-56.761c0,.061-.028.092-.028.12-.061.332-.12.694-.209,1.026a61.937,61.937,0,0,1-121.223.876c-.179-.694-.329-1.386-.446-2.08a5.828,5.828,0,0,1-.627.24,107.8,107.8,0,0,0-42.105,28.425,106.061,106.061,0,0,0-26.342,55.643c-.388,2.688-.686,5.4-.865,8.148-.24,2.445-.3,4.919-.3,7.392l.031,3.773Z" transform="translate(-1163.404 -55.035)" fill="#fff"/>
        </g>
      </g>
      <path id="Path_28" data-name="Path 28" d="M1204.421,178.607a18.251,18.251,0,0,0,36.252,0Z" transform="translate(-1037.568 -35.837)" fill="#fff"/>
    </g>
    <g id="Group_19" data-name="Group 19" transform="translate(1095.921 608.658)">
      <path id="Path_30" data-name="Path 30" d="M1249.94,126.038V357.955a26.957,26.957,0,0,1-.877,6.854,19.222,19.222,0,0,1-.577,1.961,27.8,27.8,0,0,1-23.284,18.715,25.054,25.054,0,0,1-2.954.162H1045.715q-.969,0-1.938-.069a27.8,27.8,0,0,1-24.807-20.469l-.208-.831a27.247,27.247,0,0,1-.738-6.323V126.038a27.773,27.773,0,0,1,27.691-27.691h176.533A27.773,27.773,0,0,1,1249.94,126.038Z" transform="translate(-1018.024 -67.795)" fill="#e71f20"/>
      <path id="Path_31" data-name="Path 31" d="M1123.013,87.627c-24.862,5.836-47.2-11.36-68.979,4.163-35.879,25.571-12.554,57.914-10.86,92.312,1.456,29.545,7.315,51.059,41.618,55.708,14.092,1.911,31.566-.935,44.6-7.373,12.039-5.949,13.057-14.935,21.057-22.532,6.552-6.217,13.6-4.061,20.074-9.235,5.915-4.724,7.617-18.341,9.194-25.769,2.356-11.13,10.271-19.622,12.65-32.454C1202.481,87.883,1152.908,80.611,1123.013,87.627Z" transform="translate(-996.92 -85.107)" fill="url(#linear-gradient)"/>
      <g id="Group_18" data-name="Group 18" transform="translate(0.946 40.604)">
        <g id="Group_17" data-name="Group 17">
          <path id="Path_32" data-name="Path 32" d="M1185.141,177.773c-1.108-3.346-4.043-6-7.818-4.08a13.632,13.632,0,0,0-4.461,4.421c-2.545-11.321-1.961-23.1-1.315-34.587.614-10.9.521-22.532-6.582-31.64-17.928-22.986-32.336,4.384-54.5,4.631-22.162-.247-36.573-27.618-54.5-4.631-14.492,18.581-.2,45.82-8.141,66.9,1.405-3.731-6.951-7.232-9.863-5.61-5.587,3.111-3.235,19.239-2.245,24.244.7,3.545,1.779,7.428,4.2,10.271.54.635,8.051,5.545,8.019,4.47.395,12.713,2.843,29.808,10.539,40.27,7.237,9.837,16.652,13.691,21.71,24.881,11.462,25.335-10.364,57.079-39.673,66.028,11.453,6.893,55.332,18.689,69.575,18.436,13.4,1.168,60.053-3.8,54.787-20.4-29.312-8.951-35.581-38.724-24.122-64.06,5.063-11.19,14.476-15.043,21.71-24.881,7.7-10.463,10.149-27.558,10.541-40.27-.034,1.112,7.6-3.971,8.146-4.629,2.252-2.723,3.293-6.378,4-9.736C1186.449,191.551,1187.183,183.952,1185.141,177.773Z" transform="translate(-997.594 -102.703)" fill="#f4b295"/>
          <path id="Path_33" data-name="Path 33" d="M1233.132,219.178c-2.285-1.038-4.615-2.008-6.969-2.908a154.13,154.13,0,0,0-41.883-9.9h-.046c-4.846-.438-9.692-.695-14.677-.695h-78.344a157.044,157.044,0,0,0-29.607,2.818h-.092a156.76,156.76,0,0,0-26.169,7.5c-.323.115-.646.254-.969.369a160.1,160.1,0,0,0-15.639,7.121v3.487a27.8,27.8,0,0,0,24.108,18.26q.969.069,1.938.069h176.533a25.054,25.054,0,0,0,2.954-.162,27.8,27.8,0,0,0,23.284-18.715A158.873,158.873,0,0,0,1233.132,219.178Z" transform="translate(-1018.038 31.947)" fill="#fff"/>
          <path id="Path_34" data-name="Path 34" d="M1131.665,217.348a19.22,19.22,0,0,1-.577,1.962,27.8,27.8,0,0,1-23.284,18.715,99.641,99.641,0,0,0,8.63-25.015c.093-.3.162-.623.231-.946a7.038,7.038,0,0,1,.115-.738c0-.046.046-.092.046-.208C1121.881,212.963,1126.842,215.04,1131.665,217.348Z" transform="translate(-901.572 39.062)" fill="#fff"/>
          <path id="Path_35" data-name="Path 35" d="M1043.241,238.168a27.8,27.8,0,0,1-24.807-20.469c4.777-2.285,9.692-4.385,14.7-6.231a6.353,6.353,0,0,0,1.039-.392c.185,1.131.438,2.285.738,3.415A100.8,100.8,0,0,0,1043.241,238.168Z" transform="translate(-1018.434 39.01)" fill="#fff"/>
        </g>
      </g>
      <path id="Path_36" data-name="Path 36" d="M1053.754,150.091a30.457,30.457,0,0,0,60.494,0Z" transform="translate(-971.303 -0.133)" fill="#fff"/>
    </g>
  </g>
  <ellipse id="Ellipse_9" data-name="Ellipse 9" cx="24" cy="23.5" rx="24" ry="23.5" transform="translate(659.81 1087.023)" fill="#f9bc51"/>
  <ellipse id="Ellipse_11" data-name="Ellipse 11" cx="24" cy="23.5" rx="24" ry="23.5" transform="translate(518.81 239.023)" fill="#fd7f23"/>
  <ellipse id="Ellipse_13" data-name="Ellipse 13" cx="37" cy="36.5" rx="37" ry="36.5" transform="translate(182.81 149.023)" fill="#ce081b"/>
  <circle id="Ellipse_12" data-name="Ellipse 12" cx="9.5" cy="9.5" r="9.5" transform="translate(499.81 341.023)" fill="#ce081b"/>
  <circle id="Ellipse_10" data-name="Ellipse 10" cx="12" cy="12" r="12" transform="translate(635.81 1192.023)" fill="#e71f20"/>
</svg>
