<?xml version="1.0" encoding="utf-8"?>
<!-- Generator: Adobe Illustrator 26.0.1, SVG Export Plug-In . SVG Version: 6.00 Build 0)  -->
<svg version="1.1" id="Component_1_1" xmlns="http://www.w3.org/2000/svg" xmlns:xlink="http://www.w3.org/1999/xlink" x="0px"
	 y="0px" viewBox="0 0 1466.8 945.5" style="enable-background:new 0 0 1466.8 945.5;" xml:space="preserve">
<style type="text/css">
	.st0{fill:#93000F;}
	.st1{fill:#F9BC51;}
	.st2{fill:#FD7F23;}
	.st3{fill:#CE081B;}
	.st4{fill:#F4F4F4;}
	.st5{fill:#CDCCD2;}
	.st6{fill:#362121;}
	.st7{clip-path:url(#SVGID_00000054946258897819924580000010315662550212383648_);}
	.st8{fill:#FFFFFF;}
	.st9{fill:#4E2C2C;}
	.st10{fill:#F7C6BD;}
	.st11{clip-path:url(#SVGID_00000108293883102359547840000018079196649557444226_);}
	.st12{opacity:9.000000e-02;}
	.st13{fill:#FEDB5C;}
	.st14{fill:#D38355;}
	.st15{fill:#93040F;}
	.st16{opacity:0.6;fill:#FFFFFF;}
	.st17{fill:#E71F20;}
	.st18{fill:#763008;}
	.st19{fill:#FF7F00;}
	.st20{fill:#F4B295;}
	.st21{fill:none;stroke:#362121;stroke-width:1.4051;stroke-miterlimit:10;}
	.st22{fill:#B25925;}
	.st23{fill:#602020;}
</style>
<path id="Path_51" class="st0" d="M1466.8,0c0,182.9,0,688.5,0,688.5c-86.8,82.9-380.1,78.7-437.5-80.6
	C969,440.4,964.8,314.5,764.3,293.4C576,273.6-44.1,448.2,31.3,0"/>
<ellipse id="Ellipse_9" class="st1" cx="355.8" cy="205.5" rx="13.6" ry="13.3"/>
<ellipse id="Ellipse_9_00000140717609076612459330000012735122624980743098_" class="st2" cx="542.7" cy="449.9" rx="13.6" ry="13.3"/>
<ellipse id="Ellipse_11" class="st2" cx="174.8" cy="272.7" rx="24" ry="23.5"/>
<ellipse id="Ellipse_13" class="st3" cx="602.3" cy="417.8" rx="7" ry="6.9"/>
<circle id="Ellipse_12" class="st3" cx="1402.3" cy="627.5" r="9.5"/>
<g>
	<g id="Group_13" transform="translate(801.424 82.701)">
		<g id="Group_9" transform="translate(43.053)">
			<g id="Group_8">
				<rect id="Rectangle_11" x="22.4" y="414.4" class="st4" width="113" height="44.5"/>
				<rect id="Rectangle_12" x="22.4" y="414.4" class="st5" width="113" height="44.5"/>
				<g id="Group_3">
					<path id="Path_5" class="st6" d="M309.4,92h-451.1c-9.7,0-21.8,5.8-21.8,18.1v308.1c0,11.2,12.1,22.5,21.8,22.5h451.1
						c9.7,0,11.9-11.3,11.9-22.5V110C321.3,97.8,319.1,92,309.4,92z"/>
					<g>
						<defs>
							<path id="SVGID_1_" d="M309.4,92h-451.1c-9.7,0-21.8,5.8-21.8,18.1v308.1c0,11.2,12.1,22.5,21.8,22.5h451.1
								c9.7,0,11.9-11.3,11.9-22.5V110C321.3,97.8,319.1,92,309.4,92z"/>
						</defs>
						<clipPath id="SVGID_00000046303973575356579460000015846446624095134371_">
							<use xlink:href="#SVGID_1_"  style="overflow:visible;"/>
						</clipPath>
						<g id="Group_2" style="clip-path:url(#SVGID_00000046303973575356579460000015846446624095134371_);">
							<path id="Path_6" class="st8" d="M-163.5,395v23.1c0,11.2,12.1,22.5,21.8,22.5h451.1c9.7,0,11.9-11.3,11.9-22.5V395"/>
							<path id="Path_55" class="st9" d="M-150.2,111.7h455.3v263.7h-455.3V111.7z"/>
						</g>
					</g>
				</g>
				<path id="Path_8" class="st8" d="M164.6,465.4c0,3.9-3.1,7-7,7H0.2c-3.9,0-7-3.1-7-7l0,0c0-3.9,3.1-7,7-7h157.5
					C161.5,458.4,164.6,461.5,164.6,465.4L164.6,465.4z"/>
				<path id="Path_9" class="st10" d="M-32.1,321.8"/>
				<g id="Group_7">
					<g>
						<defs>
							<path id="SVGID_00000137827986681381987030000015684518356858986380_" d="M309.4,92h-451.1c-9.7,0-21.8,5.7-21.8,17.9v304.3
								c0,11,12.1,22.2,21.8,22.2h451.1c9.7,0,11.9-11.2,11.9-22.2V109.8C321.3,97.7,319.1,92,309.4,92z"/>
						</defs>
						<clipPath id="SVGID_00000083801904815900385330000004875854439698822329_">
							<use xlink:href="#SVGID_00000137827986681381987030000015684518356858986380_"  style="overflow:visible;"/>
						</clipPath>
						<g id="Group_6" style="clip-path:url(#SVGID_00000083801904815900385330000004875854439698822329_);">
							<g id="Group_4" transform="translate(40.504 -176.928)" class="st12">
								<path id="Path_10" class="st8" d="M279.2,638.5l-135.7,0.1l-314.5-514l135.7-0.1L279.2,638.5z"/>
							</g>
							<g id="Group_30" transform="translate(-50.496 -176.928)" class="st12">
								<path id="Path_10-2" class="st8" d="M196.4,638.5l-36.1,0.1l-314.5-514l36.1-0.1L196.4,638.5z"/>
							</g>
						</g>
					</g>
				</g>
			</g>
			<path id="Path_13" class="st5" d="M89.9,426.5c-5,5-13.1,5-18.1,0c-5-5-5-13.1,0-18.1c5-5,13.1-5,18.1,0c0,0,0,0,0,0
				C94.9,413.4,94.9,421.5,89.9,426.5z"/>
		</g>
		<path id="Path_56" class="st1" d="M96.1,175c-11.5,9.7,4.1,105.9,34.3,94.8c27.3-9.9,40.9-88.7,31.6-94.8
			C141.2,161.2,116.6,160.4,96.1,175z"/>
		<g id="Group_12" transform="translate(0 91.327)">
			<g id="Group_11" transform="translate(201.389)">
				<path id="Path_14" class="st13" d="M-73,163.6c20-2.9,36.8-52.6,25.2-63.7c-15-9.3-32.8-9.3-49.7,0
					C-106.9,107.2-97.4,162.2-73,163.6z"/>
				<g id="Group_10" transform="translate(34.258 29.35)">
					<path id="Path_15" class="st14" d="M-67.1,91.4c-0.6-1.8-2.2-3.2-4.2-2.2c-1,0.6-1.8,1.4-2.4,2.4c-1.4-6.1-1.1-12.4-0.7-18.5
						c0.3-5.8,0.3-12.1-3.5-16.9c-18.1-8.1-38.3-8-58.4,0c-7.8,10-0.1,24.5-4.4,35.8c0.8-2-3.7-3.9-5.3-3c-3,1.7-1.7,10.3-1.2,13
						c0.3,2,1.1,3.9,2.2,5.5c0.3,0.3,4.3,3,4.3,2.4c0.2,6.8,1.5,16,5.6,21.6c3.9,5.3,8.9,7.3,11.6,13.3c6.1,13.6-5.6,30.6-21.3,35.4
						c6.1,3.7,29.6,10,37.3,9.9c7.2,0.6,32.2-2,29.3-10.9c-15.7-4.8-19.1-20.7-12.9-34.3c2.7-6,7.8-8.1,11.6-13.3
						c4.1-5.6,5.4-14.8,5.6-21.6c0,0.6,4.1-2.1,4.4-2.5c1.1-1.5,1.9-3.3,2.1-5.2C-66.4,98.8-66.1,94.7-67.1,91.4z"/>
					<path id="Path_16" class="st15" d="M-190.6,256.1c0.5-0.1,1.1-0.1,1.6,0h166.2v-16c0-10.7-2.2-21.2-6.6-30.9
						c-7.7-17-21.5-30.4-38.5-37c-5.5-2.2-11.4-3.5-17.3-4.1h0c-2-0.2-4-0.3-6.1-0.3h-32.3c-4.1,0-8.2,0.4-12.2,1.2h0
						c-3.7,0.7-7.3,1.8-10.8,3.1c-0.1,0.1-0.3,0.1-0.4,0.2c-22.2,8.6-39.1,29.1-43.7,54c-0.7,4-1.2,8-1.3,12v0.2c0,0.5,0,1.1,0,1.6
						v16L-190.6,256.1z"/>
					<path id="Path_17" class="st15" d="M-198.8,243.2l0.1,12.9h181.2c0-9.1,0-15.7,0-15.7c0-10.1-2.2-20.2-6.3-29.4
						c-8.2-18-23.4-32-42.1-38.8c0,0,0,0.1,0,0.1c0,0.2-0.1,0.5-0.1,0.7c-5,23.2-27.8,37.9-51,32.9c-16.3-3.5-29.1-16.1-32.8-32.3
						c-0.1-0.5-0.2-0.9-0.3-1.4c-0.1,0.1-0.3,0.1-0.4,0.2c-11.1,4.1-21.1,10.7-29.1,19.4c-9.7,10.6-16.1,23.8-18.2,38
						c-0.3,1.8-0.5,3.7-0.6,5.6c-0.2,1.7-0.2,3.4-0.2,5l0,2.6V243.2z"/>
				</g>
			</g>
			<path id="Path_18" class="st8" d="M115.7,147.3c0.8,6.8,6.9,11.6,13.7,10.8c5.7-0.7,10.1-5.1,10.8-10.8H115.7z"/>
		</g>
	</g>
	<g>
		<circle class="st16" cx="925.3" cy="341.2" r="34.2"/>
		<polygon class="st6" points="914.9,323.7 944.9,341.2 914.9,358.6 		"/>
	</g>
</g>
<g>
	<g>
		<g id="Group_27" transform="translate(1342.164 767.584)">
			<path id="Rectangle_17" class="st17" d="M-238.3-212.5h211c7.6,0,13.7,6.2,13.7,13.7v178.4c0,7.6-6.2,13.7-13.7,13.7h-211
				c-7.6,0-13.7-6.2-13.7-13.7v-178.4C-252-206.4-245.9-212.5-238.3-212.5z"/>
			<circle id="Ellipse_3-2" class="st18" cx="-129.7" cy="-133" r="41.3"/>
			<g id="Group_21-2" transform="translate(4.347 112.549)">
				<g id="Group_20-2">
					<path id="Path_37-2" class="st14" d="M-98.1-216.6c-0.5-1.6-1.9-2.8-3.7-1.9c-0.9,0.5-1.6,1.2-2.1,2.1
						c-1.2-5.3-0.9-10.9-0.6-16.3c0.3-5.1,0.2-10.6-3.1-14.9c-8.4-10.8-15.2,2.1-25.6,2.2c-10.4-0.1-17.2-13-25.6-2.2
						c-6.8,8.7-0.1,21.5-3.8,31.5c0.7-1.8-3.3-3.4-4.6-2.6c-2.6,1.5-1.5,9-1.1,11.4c0.2,1.7,0.9,3.4,2,4.8c0.3,0.3,3.8,2.6,3.8,2.1
						c0.2,6,1.3,14,5,18.9c3.4,4.6,7.8,6.4,10.2,11.7c5.4,11.9-4.9,26.8-18.7,31c5.4,3.2,26,8.8,32.7,8.7c6.3,0.5,28.2-1.8,25.8-9.6
						c-13.8-4.2-16.7-18.2-11.3-30.1c2.4-5.3,6.8-7.1,10.2-11.7c3.6-4.9,4.8-13,5-18.9c0,0.5,3.6-1.9,3.8-2.2c1-1.4,1.6-2.9,1.9-4.6
						C-97.5-210.2-97.2-213.7-98.1-216.6z"/>
					<path id="Path_38-2" class="st1" d="M-82.1-135.2c-6.9-3.3-15.9-4.9-24.2-5.7h0c-2.8-0.3-5.6-0.4-8.5-0.4H-160
						c-5.7,0-11.5,0.5-17.1,1.6h-0.1c-5.1,1-8.8,1.7-15.1,4.3s-11.5,16.1-11.5,16.1s16.5,0,16.9,0h101.9c0.6,0,13.3-0.1,13.3-0.1
						S-75.2-131.9-82.1-135.2z"/>
				</g>
			</g>
			<path id="Path_39-2" class="st8" d="M-136.7-83.7c0.5,4.6,4.7,7.8,9.2,7.3c3.8-0.5,6.8-3.5,7.3-7.3H-136.7z"/>
		</g>
		<circle id="Ellipse_5_00000160172647300996189380000002955034317339430042_" class="st18" cx="1212.5" cy="587.4" r="24.7"/>
	</g>
	<g>
		<circle class="st16" cx="1128.3" cy="591.8" r="19.1"/>
		<polygon class="st6" points="1122.5,582 1139.2,591.8 1122.5,601.5 		"/>
	</g>
</g>
<g>
	<g id="Group_22" transform="translate(1458.211 -0.059)">
		<path id="Path_54" class="st19" d="M-919.3,139.7h102.5c4.7,0,8.4,3.8,8.4,8.4v163.5c0,4.7-3.8,8.4-8.4,8.4h-102.5
			c-4.7,0-8.4-3.8-8.4-8.4V148.1C-927.8,143.4-924,139.7-919.3,139.7z"/>
		<circle id="Ellipse_3" class="st6" cx="-864.3" cy="210.5" r="36.2"/>
		<g id="Group_21" transform="translate(4.347 112.549)">
			<g id="Group_20">
				<path id="Path_37" class="st20" d="M-838.2,122.1c-0.5-1.4-1.7-2.5-3.2-1.7c-0.7,0.5-1.4,1.1-1.8,1.8c-1-4.7-0.8-9.5-0.5-14.3
					c0.3-4.5,0.2-9.3-2.7-13c-7.4-9.5-13.3,1.8-22.5,1.9c-9.1-0.1-15.1-11.4-22.5-1.9c-6,7.7-0.1,18.9-3.4,27.6
					c0.6-1.5-2.9-3-4.1-2.3c-2.3,1.3-1.3,7.9-0.9,10c0.2,1.5,0.8,3,1.7,4.2c0.2,0.3,3.3,2.3,3.3,1.8c0.2,5.2,1.2,12.3,4.3,16.6
					c3,4.1,6.9,5.6,8.9,10.3c4.7,10.4-4.3,23.5-16.3,27.2c4.7,2.8,22.8,7.7,28.7,7.6c5.5,0.5,24.7-1.6,22.6-8.4
					c-12.1-3.7-14.7-16-9.9-26.4c2.1-4.6,6-6.2,8.9-10.3c3.2-4.3,4.2-11.4,4.3-16.6c0,0.5,3.1-1.6,3.4-1.9c0.9-1.2,1.4-2.6,1.6-4
					C-837.7,127.8-837.4,124.7-838.2,122.1z"/>
				<path id="Path_38" class="st17" d="M-820.6,195c-1.2-0.5-2.3-1-3.5-1.5c-6.8-2.7-13.9-4.3-21.2-5h0c-2.5-0.2-4.9-0.4-7.4-0.4
					h-39.6c-5,0-10,0.5-15,1.4h0c-4.5,0.9-8.9,2.1-13.2,3.8c-0.2,0.1-0.3,0.1-0.5,0.2c-2.5,1.1-4.9,2.3-7.2,3.6v1.8
					c1.9,5.2,6.7,8.8,12.2,9.2c0.3,0,0.7,0,1,0h88.6c0.5,0,1,0,1.5-0.1c5.4-0.6,10-4.3,11.8-9.5C-815.7,197.3-818.2,196.1-820.6,195
					z"/>
			</g>
		</g>
		<g>
			<ellipse id="Ellipse_6" class="st21" cx="-879.3" cy="229.3" rx="14.2" ry="14.6"/>
			<ellipse id="Ellipse_7" class="st21" cx="-850" cy="229.3" rx="14.2" ry="14.6"/>
		</g>
		<path id="Path_39" class="st8" d="M-879.8,250.1c0.9,7.8,8,13.4,15.8,12.5c6.5-0.8,11.7-5.9,12.5-12.5H-879.8z"/>
	</g>
	<g>
		<circle class="st16" cx="547" cy="159.7" r="9.6"/>
		<polygon class="st6" points="544.1,154.8 552.5,159.7 544.1,164.6 		"/>
	</g>
</g>
<g>
	<g id="Group_16" transform="translate(1342.164 405.724)">
		<path id="Path_53" class="st1" d="M-139.8-110.1H89.5c3.7,0,6.8,3.7,6.8,8.2v209.6c0,4.5-3,8.2-6.8,8.2h-229.3
			c-3.7,0-6.8-3.7-6.8-8.2v-209.6C-146.6-106.4-143.6-110.1-139.8-110.1z"/>
		<path id="Path_24" class="st22" d="M-47.2-72.3c-12.5,12.5,11.3,66.8,27,66.8S20.4-59.9,8-72.3S-34.7-84.8-47.2-72.3z"/>
		<g id="Group_15" transform="translate(50.479 69.747)">
			<g id="Group_14">
				<path id="Path_25" class="st14" d="M-39.3-109.3c-0.5-1.4-1.7-2.5-3.3-1.7c-0.8,0.5-1.4,1.1-1.9,1.8c-1.1-4.7-0.8-9.7-0.5-14.5
					c0.3-4.6,0.2-9.4-2.8-13.2c-7.5-9.6-13.5,1.8-22.8,1.9c-9.3-0.1-15.3-11.5-22.8-1.9c-6.1,7.8-0.1,19.2-3.4,28
					c0.6-1.6-2.9-3-4.1-2.3c-2.3,1.3-1.4,8-0.9,10.1c0.2,1.6,0.8,3,1.8,4.3c0.2,0.3,3.4,2.3,3.4,1.9c0.2,5.3,1.2,12.5,4.4,16.8
					c3,4.1,7,5.7,9.1,10.4c4.8,10.6-4.3,23.9-16.6,27.6c4.8,2.9,23.1,7.8,29.1,7.7c5.6,0.5,25.1-1.6,22.9-8.5
					C-60-44.7-62.6-57.1-57.8-67.7c2.1-4.7,6-6.3,9.1-10.4c3.2-4.4,4.2-11.5,4.4-16.8c0,0.5,3.2-1.7,3.4-1.9
					c0.9-1.2,1.4-2.6,1.7-4.1C-38.7-103.5-38.4-106.7-39.3-109.3z"/>
				<path id="Path_26" class="st23" d="M-158.4,47.3c0.5-0.1,1.1-0.1,1.6,0H11.6V31.1c0-10.8-2.3-21.4-6.7-31.3
					C-2.9-17.4-16.9-31-34.1-37.6c-5.6-2.2-11.5-3.6-17.5-4.1h0c-2-0.2-4.1-0.3-6.1-0.3h-32.7c-4.2,0-8.3,0.4-12.4,1.2h0
					c-3.7,0.7-7.4,1.8-10.9,3.1c-0.1,0.1-0.3,0.1-0.4,0.2c-22.4,8.7-39.6,29.4-44.2,54.6c-0.7,4-1.2,8.1-1.3,12.2v0.2
					c0,0.5,0,1.1,0,1.6v16.2L-158.4,47.3z"/>
				<path id="Path_27" class="st23" d="M-162.5,34.3l0.1,12.9H16.8c0-9.1,0-15.8,0-15.8c0-10.1-2.1-20.2-6.3-29.4
					C2.4-16-12.6-30-31.1-36.8c0,0,0,0.1,0,0.1c0,0.2-0.1,0.5-0.1,0.7c-4.6,22.9-27,37.8-49.9,33.1c-16.5-3.3-29.4-16.1-33-32.5
					c-0.1-0.5-0.2-0.9-0.3-1.4c-0.1,0.1-0.3,0.1-0.4,0.2c-11,4.1-20.9,10.8-28.8,19.4c-9.6,10.6-15.9,23.9-18,38.1
					c-0.3,1.8-0.5,3.7-0.6,5.6c-0.2,1.7-0.2,3.4-0.2,5.1l0,2.6L-162.5,34.3z"/>
			</g>
		</g>
		<path id="Path_28" class="st8" d="M-32.4-21.7c0.8,6.8,7,11.7,13.9,10.9c5.7-0.7,10.3-5.2,10.9-10.9H-32.4z"/>
	</g>
	<g>
		<circle class="st16" cx="1230.1" cy="331.4" r="19.1"/>
		<polygon class="st6" points="1224.3,321.7 1241,331.4 1224.3,341.2 		"/>
	</g>
</g>
</svg>
